<svg width="1200" height="630" viewBox="0 0 1200 630" fill="none" xmlns="http://www.w3.org/2000/svg">
  <defs>
    <linearGradient id="bg" x1="120" y1="50" x2="1080" y2="580" gradientUnits="userSpaceOnUse">
      <stop stop-color="#121938"/>
      <stop offset="0.52" stop-color="#1D1851"/>
      <stop offset="1" stop-color="#080C1E"/>
    </linearGradient>
    <linearGradient id="accent" x1="181" y1="131" x2="973" y2="514" gradientUnits="userSpaceOnUse">
      <stop stop-color="#FF006E"/>
      <stop offset="0.56" stop-color="#00F5FF"/>
      <stop offset="1" stop-color="#39FF14"/>
    </linearGradient>
    <filter id="glowPink" x="0" y="0" width="1200" height="630" filterUnits="userSpaceOnUse" color-interpolation-filters="sRGB">
      <feGaussianBlur stdDeviation="18" result="blur"/>
      <feComposite in="SourceGraphic" in2="blur" operator="over"/>
    </filter>
  </defs>

  <rect width="1200" height="630" fill="url(#bg)"/>
  <rect x="64" y="58" width="1072" height="514" rx="30" fill="rgba(10, 14, 39, 0.55)" stroke="rgba(255, 255, 255, 0.08)"/>

  <g opacity="0.18">
    <path d="M0 133H1200" stroke="#00F5FF" stroke-width="1"/>
    <path d="M0 315H1200" stroke="#00F5FF" stroke-width="1"/>
    <path d="M0 498H1200" stroke="#00F5FF" stroke-width="1"/>
    <path d="M162 0V630" stroke="#FF006E" stroke-width="1"/>
    <path d="M600 0V630" stroke="#FF006E" stroke-width="1"/>
    <path d="M1028 0V630" stroke="#FF006E" stroke-width="1"/>
  </g>

  <circle cx="981" cy="156" r="118" fill="#FF006E" opacity="0.12"/>
  <circle cx="902" cy="495" r="140" fill="#00F5FF" opacity="0.08"/>
  <circle cx="1069" cy="439" r="89" fill="#39FF14" opacity="0.08"/>

  <path d="M117 506C258 398 373 348 538 334C665 323 766 350 915 429" stroke="url(#accent)" stroke-width="8" stroke-linecap="round" opacity="0.9" filter="url(#glowPink)"/>
  <path d="M118 475C224 394 349 335 458 301C574 265 731 256 933 315" stroke="#00F5FF" stroke-width="2.5" stroke-linecap="round" opacity="0.75"/>

  <text x="116" y="146" fill="#A7B0CC" font-family="Space Mono, monospace" font-size="26" letter-spacing="5">PORTFOLIO / FINANCE / PERFORMANCE / HOSPITALITY</text>

  <text x="111" y="257" fill="#FF006E" font-family="Space Mono, monospace" font-size="96" font-weight="700" letter-spacing="2">JOCELYNE</text>
  <text x="116" y="336" fill="#00F5FF" font-family="Space Mono, monospace" font-size="60" font-weight="700" letter-spacing="9">NIE YI</text>

  <text x="118" y="404" fill="#E9ECF8" font-family="Poppins, Arial, sans-serif" font-size="30" font-weight="500">A bilingual portfolio spanning finance discipline, stage presence,</text>
  <text x="118" y="447" fill="#E9ECF8" font-family="Poppins, Arial, sans-serif" font-size="30" font-weight="500">creative direction, and audience-facing hospitality work in Singapore.</text>

  <rect x="116" y="495" width="326" height="54" rx="27" fill="rgba(255,255,255,0.06)" stroke="rgba(255,255,255,0.16)"/>
  <text x="145" y="531" fill="#F5F7FF" font-family="IBM Plex Mono, monospace" font-size="24" letter-spacing="2">/en   /zh-CN   live now</text>

  <rect x="822" y="72" width="238" height="78" rx="20" fill="rgba(255,0,110,0.12)" stroke="rgba(255,0,110,0.44)"/>
  <text x="852" y="117" fill="#FFD0E2" font-family="IBM Plex Mono, monospace" font-size="24" letter-spacing="2">JOCELYNE PORTFOLIO</text>
</svg>